HIERARCHY
ROOT hip
{
  OFFSET 0.00112043 5.09927 -9.65472
  CHANNELS 6 Xposition Yposition Zposition Zrotation Xrotation Yrotation
  JOINT abdomen
  {
    OFFSET 0 -1.186 -1.5018
    CHANNELS 3 Zrotation Xrotation Yrotation
    JOINT abdomen2
    {
      OFFSET 0 9.964 0.2134
      CHANNELS 3 Zrotation Xrotation Yrotation
      JOINT chest
      {
        OFFSET 0 13.134 -3.2573
        CHANNELS 3 Zrotation Xrotation Yrotation
        JOINT neck
        {
          OFFSET 0 20.686 -1.6905
          CHANNELS 3 Zrotation Xrotation Yrotation
          JOINT head
          {
            OFFSET 0 7.238 -0.1237
            CHANNELS 3 Zrotation Xrotation Yrotation
            End Site
            {
              OFFSET 0 0 0
            }
          }
        }
        JOINT lCollar
        {
          OFFSET 1.7069 20.075 5.0056
          CHANNELS 3 Zrotation Xrotation Yrotation
          JOINT lShldr
          {
            OFFSET 13.6458 -0.047 -4.849
            CHANNELS 3 Zrotation Xrotation Yrotation
            JOINT lForeArm
            {
              OFFSET 28.3255 -0.9759 2.2888
              CHANNELS 3 Zrotation Xrotation Yrotation
              JOINT lHand
              {
                OFFSET 22.1583 -0.53 10.8316
                CHANNELS 3 Zrotation Xrotation Yrotation
                JOINT lThumb1
                {
                  OFFSET 0.786 0.112 2.5817
                  CHANNELS 3 Zrotation Xrotation Yrotation
                  JOINT lThumb2
                  {
                    OFFSET 0.3601 -0.878 4.2331
                    CHANNELS 3 Zrotation Xrotation Yrotation
                    JOINT lThumb2_End
                    {
                      OFFSET 1.8127 -1.216 2.2227
                      CHANNELS 3 Zrotation Xrotation Yrotation
                      End Site
                      {
                        OFFSET 0.0181 -0.0122 0.0222
                      }
                    }
                  }
                }
                JOINT lCarpal1
                {
                  OFFSET 0.9571 1.114 1.7695
                  CHANNELS 3 Zrotation Xrotation Yrotation
                  JOINT lIndex1
                  {
                    OFFSET 4.1246 0.487 4.1451
                    CHANNELS 3 Zrotation Xrotation Yrotation
                    JOINT lIndex2
                    {
                      OFFSET 3.4052 -1.454 2.7682
                      CHANNELS 3 Zrotation Xrotation Yrotation
                      JOINT lIndex2_End
                      {
                        OFFSET 1.4531 -1.795 1.2713
                        CHANNELS 3 Zrotation Xrotation Yrotation
                        End Site
                        {
                          OFFSET 0.0145 -0.0179 0.0127
                        }
                      }
                    }
                  }
                  JOINT lMid1
                  {
                    OFFSET 5.6954 0.21 2.1184
                    CHANNELS 3 Zrotation Xrotation Yrotation
                    JOINT lMid2
                    {
                      OFFSET 3.9766 -1.54 2.3863
                      CHANNELS 3 Zrotation Xrotation Yrotation
                      JOINT lMid2_End
                      {
                        OFFSET 1.4042 -1.926 1.125
                        CHANNELS 3 Zrotation Xrotation Yrotation
                        End Site
                        {
                          OFFSET 0.014 -0.0193 0.0113
                        }
                      }
                    }
                  }
                }
                JOINT lCarpal2
                {
                  OFFSET 2.0956 0.66 -0.3894
                  CHANNELS 3 Zrotation Xrotation Yrotation
                  JOINT lRing1
                  {
                    OFFSET 5.0395 -0.09 2.4971
                    CHANNELS 3 Zrotation Xrotation Yrotation
                    JOINT lRing2
                    {
                      OFFSET 3.7921 -1.552 1.4806
                      CHANNELS 3 Zrotation Xrotation Yrotation
                      JOINT lRing2_End
                      {
                        OFFSET 1.4655 -1.808 0.9609
                        CHANNELS 3 Zrotation Xrotation Yrotation
                        End Site
                        {
                          OFFSET 0.0147 -0.0181 0.0096
                        }
                      }
                    }
                  }
                  JOINT lPinky1
                  {
                    OFFSET 4.9141 -1.269 0.3591
                    CHANNELS 3 Zrotation Xrotation Yrotation
                    JOINT lPinky2
                    {
                      OFFSET 3.1477 -1.685 0.8462
                      CHANNELS 3 Zrotation Xrotation Yrotation
                      JOINT lPinky2_End
                      {
                        OFFSET 0.8055 -1.585 0.7955
                        CHANNELS 3 Zrotation Xrotation Yrotation
                        End Site
                        {
                          OFFSET 0.0081 -0.0158 0.008
                        }
                      }
                    }
                  }
                }
              }
            }
          }
        }
        JOINT rCollar
        {
          OFFSET -1.7069 20.075 5.0056
          CHANNELS 3 Zrotation Xrotation Yrotation
          JOINT rShldr
          {
            OFFSET -13.6458 -0.047 -4.849
            CHANNELS 3 Zrotation Xrotation Yrotation
            JOINT rForeArm
            {
              OFFSET -28.3255 -0.9759 2.2888
              CHANNELS 3 Zrotation Xrotation Yrotation
              JOINT rHand
              {
                OFFSET -22.1583 -0.53 10.8316
                CHANNELS 3 Zrotation Xrotation Yrotation
                JOINT rThumb1
                {
                  OFFSET -0.786 0.112 2.5817
                  CHANNELS 3 Zrotation Xrotation Yrotation
                  JOINT rThumb2
                  {
                    OFFSET -0.3601 -0.878 4.2331
                    CHANNELS 3 Zrotation Xrotation Yrotation
                    JOINT rThumb2_End
                    {
                      OFFSET -1.8127 -1.216 2.2227
                      CHANNELS 3 Zrotation Xrotation Yrotation
                      End Site
                      {
                        OFFSET -0.0181 -0.0122 0.0222
                      }
                    }
                  }
                }
                JOINT rCarpal1
                {
                  OFFSET -0.9571 1.114 1.7695
                  CHANNELS 3 Zrotation Xrotation Yrotation
                  JOINT rIndex1
                  {
                    OFFSET -4.1246 0.487 4.1451
                    CHANNELS 3 Zrotation Xrotation Yrotation
                    JOINT rIndex2
                    {
                      OFFSET -3.4052 -1.454 2.7682
                      CHANNELS 3 Zrotation Xrotation Yrotation
                      JOINT rIndex2_End
                      {
                        OFFSET -1.4531 -1.795 1.2713
                        CHANNELS 3 Zrotation Xrotation Yrotation
                        End Site
                        {
                          OFFSET -0.0145 -0.018 0.0127
                        }
                      }
                    }
                  }
                  JOINT rMid1
                  {
                    OFFSET -5.6954 0.21 2.1184
                    CHANNELS 3 Zrotation Xrotation Yrotation
                    JOINT rMid2
                    {
                      OFFSET -3.9766 -1.54 2.3863
                      CHANNELS 3 Zrotation Xrotation Yrotation
                      JOINT rMid2_End
                      {
                        OFFSET -1.4042 -1.926 1.125
                        CHANNELS 3 Zrotation Xrotation Yrotation
                        End Site
                        {
                          OFFSET -0.014 -0.0193 0.0113
                        }
                      }
                    }
                  }
                }
                JOINT rCarpal2
                {
                  OFFSET -2.0956 0.66 -0.3894
                  CHANNELS 3 Zrotation Xrotation Yrotation
                  JOINT rRing1
                  {
                    OFFSET -5.0395 -0.09 2.4971
                    CHANNELS 3 Zrotation Xrotation Yrotation
                    JOINT rRing2
                    {
                      OFFSET -3.7921 -1.552 1.4806
                      CHANNELS 3 Zrotation Xrotation Yrotation
                      JOINT rRing2_End
                      {
                        OFFSET -1.4655 -1.808 0.9609
                        CHANNELS 3 Zrotation Xrotation Yrotation
                        End Site
                        {
                          OFFSET -0.0147 -0.0181 0.0096
                        }
                      }
                    }
                  }
                  JOINT rPinky1
                  {
                    OFFSET -4.9141 -1.269 0.3592
                    CHANNELS 3 Zrotation Xrotation Yrotation
                    JOINT rPinky2
                    {
                      OFFSET -3.1477 -1.685 0.8462
                      CHANNELS 3 Zrotation Xrotation Yrotation
                      JOINT rPinky2_End
                      {
                        OFFSET -0.8055 -1.585 0.7955
                        CHANNELS 3 Zrotation Xrotation Yrotation
                        End Site
                        {
                          OFFSET -0.0081 -0.0158 0.008
                        }
                      }
                    }
                  }
                }
              }
            }
          }
        }
      }
    }
  }
  JOINT lThigh
  {
    OFFSET 8.367 -8.2066 0.5982
    CHANNELS 3 Zrotation Xrotation Yrotation
    JOINT lShin
    {
      OFFSET 2.1923 -43.463 -0.4932
      CHANNELS 3 Zrotation Xrotation Yrotation
      JOINT lFoot
      {
        OFFSET 0.7333 -45.8593 -2.6451
        CHANNELS 3 Zrotation Xrotation Yrotation
        End Site
        {
          OFFSET 2.6618 -4.2699 12.3931
        }
      }
    }
  }
  JOINT rThigh
  {
    OFFSET -8.367 -8.2066 0.5982
    CHANNELS 3 Zrotation Xrotation Yrotation
    JOINT rShin
    {
      OFFSET -2.1923 -43.463 -0.4931
      CHANNELS 3 Zrotation Xrotation Yrotation
      JOINT rFoot
      {
        OFFSET -0.7333 -45.8593 -2.6451
        CHANNELS 3 Zrotation Xrotation Yrotation
        End Site
        {
          OFFSET -2.6618 -4.2699 12.3931
        }
      }
    }
  }
}
MOTION
Frames:	7
Frame Time:	0.0333333
0 91.7903 2.51682 0 0 -0 0 0 -0 0 0 -0 0 0 -0 0 0 -0 0 0 -0 0 0 -0 1.66051 0.0835086 5.75766 -0.0175111 0.895433 15.7816 7.95139e-016 -1.98785e-016 -0 5.46658e-016 -3.97569e-016 -0 5.96354e-016 0 -0 3.97569e-016 1.98785e-016 9.54166e-015 1.49089e-016 -3.97569e-016 -0 6.4605e-016 0 3.18055e-015 5.96354e-016 0 3.18055e-015 8.94531e-016 -1.98785e-016 6.36111e-015 6.4605e-016 0 3.18055e-015 5.96354e-016 0 3.18055e-015 8.94531e-016 -1.98785e-016 6.36111e-015 1.49089e-016 -3.97569e-016 -0 6.4605e-016 0 3.18055e-015 5.96354e-016 0 3.18055e-015 8.94531e-016 -1.98785e-016 6.36111e-015 6.4605e-016 0 3.18055e-015 5.96354e-016 0 3.18055e-015 8.94531e-016 -1.98785e-016 6.36111e-015 0 0 -0 -1.4496 0.0636048 -5.0245 -1.74811 1.20616 -16.8394 -1.19271e-015 1.98785e-016 -3.18055e-015 -3.97569e-016 1.98785e-016 -3.18055e-015 -2.98177e-016 1.98785e-016 -3.18055e-015 -2.98177e-016 3.97569e-016 -0 4.96962e-016 0 -6.36111e-015 -9.93923e-017 3.97569e-016 -0 -8.94531e-016 5.96354e-016 -0 -3.97569e-016 3.97569e-016 -0 -9.93923e-017 3.97569e-016 -0 -8.94531e-016 5.96354e-016 -0 -3.97569e-016 3.97569e-016 -0 4.96962e-016 0 -6.36111e-015 -9.93923e-017 3.97569e-016 -0 -8.94531e-016 5.96354e-016 -0 -3.97569e-016 3.97569e-016 -0 -9.93923e-017 3.97569e-016 -0 -8.94531e-016 5.96354e-016 -0 -3.97569e-016 3.97569e-016 -0 -4.66111 -0.998717 0.12318 0.00986924 1.54847 0.176523 4.65186 -0.572283 -0.254274 4.66111 -0.998765 -0.123176 -0.00986867 1.54869 -0.176537 -4.65186 -0.572453 0.25427 
-10.2388 55.2992 64.0155 0 52.8197 -0 -0.27224 2.92785 -0.109531 -0.539927 5.85615 -0.205512 -0.539926 5.85615 -0.205512 0.278476 -18.1286 0.115586 0.162963 -16.4973 0.0613826 -8.76799 -0.0536948 -6.95054 -51.176 -19.2034 -44.6619 29.1084 28.1004 -21.0606 29.5926 -5.2382 3.09419 -6.36111e-015 3.18055e-015 -6.36111e-015 3.18055e-015 0 -3.18055e-015 3.18055e-015 -9.54166e-015 -0 -3.18055e-015 6.36111e-015 -3.18055e-015 3.18055e-015 6.36111e-015 1.27222e-014 -3.18055e-015 3.18055e-015 3.18055e-015 -3.18055e-015 0 -0 3.18055e-015 6.36111e-015 1.27222e-014 -3.18055e-015 3.18055e-015 3.18055e-015 -3.18055e-015 0 -0 -3.18055e-015 6.36111e-015 -3.18055e-015 3.18055e-015 6.36111e-015 1.27222e-014 -3.18055e-015 3.18055e-015 3.18055e-015 -3.18055e-015 0 -0 3.18055e-015 6.36111e-015 1.27222e-014 -3.18055e-015 3.18055e-015 3.18055e-015 -3.18055e-015 0 -0 7.97509 0.280575 8.81476 49.5491 -20.1468 43.6099 -31.8707 23.5331 15.1461 -26.0879 -4.16092 -2.49403 6.36111e-015 3.18055e-015 6.36111e-015 3.18055e-015 9.54166e-015 -3.18055e-015 -3.18055e-015 6.36111e-015 3.18055e-015 6.36111e-015 -6.36111e-015 6.36111e-015 6.36111e-015 -9.54166e-015 6.36111e-015 0 0 -3.18055e-015 -3.18055e-015 6.36111e-015 -3.18055e-015 6.36111e-015 -9.54166e-015 6.36111e-015 0 0 -3.18055e-015 -3.18055e-015 6.36111e-015 -3.18055e-015 6.36111e-015 -6.36111e-015 6.36111e-015 6.36111e-015 -9.54166e-015 6.36111e-015 0 0 -3.18055e-015 -3.18055e-015 6.36111e-015 -3.18055e-015 6.36111e-015 -9.54166e-015 6.36111e-015 0 0 -3.18055e-015 -3.18055e-015 6.36111e-015 -3.18055e-015 51.8143 -69.905 41.8875 -50.3495 84.6456 57.5777 20.7589 12.8484 -4.3939 -50.9815 -70.0356 -40.6144 50.0422 84.6931 -57.2569 -20.1416 12.9189 4.11716 
-14.8575 36.5678 88.5542 0 76.5886 -0 -0.434853 4.29201 -0.131927 -0.863414 8.58488 -0.232058 -0.863414 8.58488 -0.232058 0.428865 -25.895 0.174491 0.249691 -24.339 0.0952191 -12.6411 -0.228743 -10.1293 -82.7446 -14.8023 -67.4589 52.8174 29.9472 -41.3248 43.0531 -6.81265 6.2187 -3.18055e-015 0 -0 -4.77083e-015 3.18055e-015 -3.18055e-015 -0 0 6.36111e-015 -3.18055e-015 0 -3.18055e-015 -3.18055e-015 0 3.18055e-015 3.18055e-015 -6.36111e-015 -0 -7.95139e-015 0 -3.18055e-015 -3.18055e-015 0 3.18055e-015 3.18055e-015 -6.36111e-015 -0 -7.95139e-015 0 -3.18055e-015 -3.18055e-015 0 -3.18055e-015 -3.18055e-015 0 3.18055e-015 3.18055e-015 -6.36111e-015 -0 -7.95139e-015 0 -3.18055e-015 -3.18055e-015 0 3.18055e-015 3.18055e-015 -6.36111e-015 -0 -7.95139e-015 0 -3.18055e-015 11.4578 0.26162 12.8427 80.7345 -16.6429 66.0418 -53.5248 26.8651 32.0292 -37.9085 -5.48423 -5.01294 -4.56077e-007 -1.58582e-006 1.80626e-007 4.56077e-007 1.58582e-006 -1.80626e-007 1.12975e-006 -2.0419e-006 5.80939e-007 3.18055e-015 -3.18055e-015 -3.18055e-015 -4.56077e-007 -1.58582e-006 1.80626e-007 4.56077e-007 1.58582e-006 -1.80626e-007 1.12975e-006 -2.0419e-006 5.80939e-007 -4.56077e-007 -1.58582e-006 1.80626e-007 4.56077e-007 1.58582e-006 -1.80626e-007 1.12975e-006 -2.0419e-006 5.80939e-007 3.18055e-015 -3.18055e-015 -3.18055e-015 -4.56077e-007 -1.58582e-006 1.80626e-007 4.56077e-007 1.58582e-006 -1.80626e-007 1.12975e-006 -2.0419e-006 5.80939e-007 -4.56077e-007 -1.58582e-006 1.80626e-007 4.56077e-007 1.58582e-006 -1.80626e-007 1.12975e-006 -2.0419e-006 5.80939e-007 160.028 -63.5724 139.779 -166.435 53.5101 176.267 28.183 20.0363 -5.87967 -161.173 -64.1456 -140.495 166.583 53.5169 -176.435 -27.2528 20.132 5.43417 
-13.8308 40.8556 83.3389 0 71.3066 -0 -0.397843 4.0931 -0.13127 -0.78929 8.18699 -0.234861 -0.78929 8.18698 -0.234862 0.391227 -23.2981 0.153884 0.231172 -23.525 0.0912852 -11.6048 -0.527418 -9.53611 -75.8174 -16.6374 -62.7728 47.332 30.2869 -36.9357 40.1415 -6.71773 5.58421 -1.62199e-006 -1.68962e-006 3.76312e-006 1.62199e-006 1.68962e-006 -3.76312e-006 4.71478e-007 -2.76551e-006 3.78819e-006 4.77083e-015 0 -3.18055e-015 -1.62199e-006 -1.68962e-006 3.76312e-006 1.62199e-006 1.68962e-006 -3.76312e-006 4.71478e-007 -2.76551e-006 3.78819e-006 -1.62199e-006 -1.68962e-006 3.76312e-006 1.62199e-006 1.68962e-006 -3.76312e-006 4.71478e-007 -2.76551e-006 3.78819e-006 4.77083e-015 0 -3.18055e-015 -1.62199e-006 -1.68962e-006 3.76312e-006 1.62199e-006 1.68962e-006 -3.76312e-006 4.71478e-007 -2.76551e-006 3.78819e-006 -1.62199e-006 -1.68962e-006 3.76312e-006 1.62199e-006 1.68962e-006 -3.76312e-006 4.71478e-007 -2.76551e-006 3.78819e-006 10.5063 -0.0457624 12.0836 73.8477 -18.2648 61.4042 -48.4442 26.626 28.2678 -35.3487 -5.45066 -4.53996 1.76556e-031 -3.18055e-015 3.18055e-015 -1.29293e-006 2.44788e-007 -4.93939e-006 3.18055e-015 -6.36111e-015 -3.18055e-015 3.53113e-031 -6.36111e-015 3.18055e-015 1.59028e-015 -3.18055e-015 6.36111e-015 -1.29293e-006 2.44788e-007 -4.93939e-006 4.77083e-015 -3.18055e-015 -6.36111e-015 1.59028e-015 -3.18055e-015 6.36111e-015 -1.29293e-006 2.44788e-007 -4.93939e-006 4.77083e-015 -3.18055e-015 -6.36111e-015 3.53113e-031 -6.36111e-015 3.18055e-015 1.59028e-015 -3.18055e-015 6.36111e-015 -1.29293e-006 2.44788e-007 -4.93939e-006 4.77083e-015 -3.18055e-015 -6.36111e-015 1.59028e-015 -3.18055e-015 6.36111e-015 -1.29293e-006 2.44788e-007 -4.93939e-006 4.77083e-015 -3.18055e-015 -6.36111e-015 144.349 -69.6697 126.34 -164.129 62.158 173.306 26.4706 18.188 -5.58052 -145.243 -70.2593 -126.788 164.308 62.1675 -173.492 -25.6138 18.28 5.17925 
-13.8308 40.8556 83.3389 0 71.3066 -0 -0.398249 4.17857 -0.132991 -0.789908 8.35795 -0.237718 -0.789908 8.35795 -0.237718 0.389237 -22.5848 0.148512 0.232563 -24.2856 0.0946308 -11.4629 -0.803859 -9.62797 -75.8174 -16.6373 -62.7728 47.332 30.2869 -36.9358 40.211 -6.87081 5.69707 -3.53113e-031 3.18055e-015 6.36111e-015 1.59028e-015 6.36111e-015 3.18055e-015 0 0 -3.18055e-015 -0 0 6.36111e-015 -5.29669e-031 3.18055e-015 9.54166e-015 -3.18055e-015 3.18055e-015 -0 -1.59028e-015 0 -0 -5.29669e-031 3.18055e-015 9.54166e-015 -3.18055e-015 3.18055e-015 -0 -1.59028e-015 0 -0 -0 0 6.36111e-015 -5.29669e-031 3.18055e-015 9.54166e-015 -3.18055e-015 3.18055e-015 -0 -1.59028e-015 0 -0 -5.29669e-031 3.18055e-015 9.54166e-015 -3.18055e-015 3.18055e-015 -0 -1.59028e-015 0 -0 10.3617 -0.301294 12.1941 73.8477 -18.2648 61.4042 -48.4442 26.626 28.2677 -35.4054 -5.62309 -4.66323 1.76556e-031 3.18055e-015 -3.18055e-015 1.76556e-031 3.18055e-015 -3.18055e-015 -1.59028e-015 -3.18055e-015 -6.36111e-015 1.76556e-031 3.18055e-015 -3.18055e-015 -1.59028e-015 -3.18055e-015 6.36111e-015 -1.59028e-015 0 -6.36111e-015 -4.77083e-015 -3.18055e-015 -9.54166e-015 -1.59028e-015 -3.18055e-015 6.36111e-015 -1.59028e-015 0 -6.36111e-015 -4.77083e-015 -3.18055e-015 -9.54166e-015 1.76556e-031 3.18055e-015 -3.18055e-015 -1.59028e-015 -3.18055e-015 6.36111e-015 -1.59028e-015 0 -6.36111e-015 -4.77083e-015 -3.18055e-015 -9.54166e-015 -1.59028e-015 -3.18055e-015 6.36111e-015 -1.59028e-015 0 -6.36111e-015 -4.77083e-015 -3.18055e-015 -9.54166e-015 144.349 -69.6697 126.34 -164.129 62.158 173.306 26.4706 18.188 -5.58052 -145.243 -70.2593 -126.788 164.308 62.1675 -173.492 -25.6138 18.28 5.17925 
-13.8308 40.8556 83.3389 0 71.3066 -0 -0.398592 4.26414 -0.134688 -0.790398 8.52912 -0.240533 -0.790398 8.5291 -0.240533 0.38725 -21.8711 0.143163 0.234016 -25.0467 0.098009 -11.3214 -1.08048 -9.71915 -75.8174 -16.6374 -62.7728 47.3321 30.2869 -36.9358 40.2807 -7.02376 5.81017 -5.78431e-007 -2.55914e-006 6.16812e-007 5.08925e-007 -1.58452e-006 -2.58266e-007 1.59028e-015 -3.18055e-015 3.18055e-015 -4.77083e-015 3.18055e-015 -6.36111e-015 -5.78431e-007 -2.55914e-006 6.16812e-007 5.08925e-007 -1.58452e-006 -2.58266e-007 3.53113e-031 -6.36111e-015 3.18055e-015 -5.78431e-007 -2.55914e-006 6.16812e-007 5.08925e-007 -1.58452e-006 -2.58266e-007 3.53113e-031 -6.36111e-015 3.18055e-015 -4.77083e-015 3.18055e-015 -6.36111e-015 -5.78431e-007 -2.55914e-006 6.16812e-007 5.08925e-007 -1.58452e-006 -2.58266e-007 3.53113e-031 -6.36111e-015 3.18055e-015 -5.78431e-007 -2.55914e-006 6.16812e-007 5.08925e-007 -1.58452e-006 -2.58266e-007 3.53113e-031 -6.36111e-015 3.18055e-015 10.2175 -0.557074 12.3039 73.8477 -18.2648 61.4042 -48.4442 26.626 28.2678 -35.4625 -5.79542 -4.78673 -2.13093e-006 7.30391e-007 1.98128e-006 2.06655e-006 1.08258e-006 2.07066e-007 -1.0182e-006 2.53578e-007 -2.77652e-006 -0 -3.18055e-015 -0 -2.13093e-006 7.30391e-007 1.98128e-006 2.06655e-006 1.08258e-006 2.07066e-007 -1.0182e-006 2.53578e-007 -2.77652e-006 -2.13093e-006 7.30391e-007 1.98128e-006 2.06655e-006 1.08258e-006 2.07066e-007 -1.0182e-006 2.53578e-007 -2.77652e-006 -0 -3.18055e-015 -0 -2.13093e-006 7.30391e-007 1.98128e-006 2.06655e-006 1.08258e-006 2.07066e-007 -1.0182e-006 2.53578e-007 -2.77652e-006 -2.13093e-006 7.30391e-007 1.98128e-006 2.06655e-006 1.08258e-006 2.07066e-007 -1.0182e-006 2.53578e-007 -2.77652e-006 144.349 -69.6697 126.34 -164.129 62.158 173.306 26.4706 18.188 -5.58052 -145.243 -70.2593 -126.788 164.308 62.1675 -173.492 -25.6138 18.28 5.17925 
-13.8308 40.8556 83.3389 0 71.3066 -0 -0.398938 4.34983 -0.136396 -0.790892 8.70048 -0.243369 -0.790892 8.70049 -0.243369 0.385628 -21.1569 0.13787 0.235516 -25.8083 0.101437 -11.1803 -1.35735 -9.80966 -75.8174 -16.6373 -62.7728 47.3321 30.2869 -36.9358 40.3508 -7.17658 5.92351 1.59028e-015 6.36111e-015 -0 2.79365e-008 -2.23329e-006 -2.82858e-006 -5.76712e-007 5.98815e-007 4.58316e-006 1.59028e-015 0 -0 -5.29669e-031 3.18055e-015 9.54166e-015 2.79365e-008 -2.23329e-006 -2.82858e-006 -5.76712e-007 5.98815e-007 4.58316e-006 -5.29669e-031 3.18055e-015 9.54166e-015 2.79365e-008 -2.23329e-006 -2.82858e-006 -5.76712e-007 5.98815e-007 4.58316e-006 1.59028e-015 0 -0 -5.29669e-031 3.18055e-015 9.54166e-015 2.79365e-008 -2.23329e-006 -2.82858e-006 -5.76712e-007 5.98815e-007 4.58316e-006 -5.29669e-031 3.18055e-015 9.54166e-015 2.79365e-008 -2.23329e-006 -2.82858e-006 -5.76712e-007 5.98815e-007 4.58316e-006 10.0738 -0.81315 12.4132 73.8477 -18.2648 61.4042 -48.4442 26.626 28.2678 -35.52 -5.96762 -4.91044 0 6.36111e-015 -0 3.18055e-015 3.18055e-015 -0 -4.77083e-015 -3.18055e-015 -6.36111e-015 0 6.36111e-015 -0 1.59028e-015 -3.18055e-015 9.54166e-015 3.18055e-015 0 -0 -0 0 3.18055e-015 1.59028e-015 -3.18055e-015 9.54166e-015 3.18055e-015 0 -0 -0 0 3.18055e-015 0 6.36111e-015 -0 1.59028e-015 -3.18055e-015 9.54166e-015 3.18055e-015 0 -0 -0 0 3.18055e-015 1.59028e-015 -3.18055e-015 9.54166e-015 3.18055e-015 0 -0 -0 0 3.18055e-015 144.349 -69.6697 126.34 -164.129 62.158 173.306 26.4706 18.188 -5.58052 -145.243 -70.2593 -126.788 164.308 62.1675 -173.492 -25.6138 18.28 5.17925 
